<svg width="128" height="128" viewBox="0 0 128 128" fill="none" xmlns="http://www.w3.org/2000/svg"><path d="M65 19c10 0 19 12 18 22-1 9-7 16-15 21-13 9-28 13-42 17-7 2-14 5-17 11-2 4-1 9 2 12 7 7 21 7 34 3 23-7 44-24 56-45 5-9 9-19 7-29-2-13-13-24-26-26-7-1-17 1-22 6-3 3-3 7-1 10 3 3 7 3 11 2 2-1 3-4 5-4z" fill="url(#g)"/><defs><linearGradient id="g" x1="0" y1="0" x2="128" y2="128" gradientUnits="userSpaceOnUse"><stop stop-color="#FF3B30"/><stop offset="1" stop-color="#FF7A59"/></linearGradient></defs></svg>